HIERARCHY
ROOT Hips
{
	OFFSET 0.000000 0.000000 0.000000
	CHANNELS 6 Xposition Yposition Zposition Zrotation Yrotation Xrotation 
	JOINT LHipJoint
	{
		OFFSET 0.000000 0.000000 0.000000
		CHANNELS 3 Zrotation Yrotation Xrotation
		JOINT LeftUpLeg
		{
			OFFSET 1.363060 -1.794630 0.839290
			CHANNELS 3 Zrotation Yrotation Xrotation
			JOINT LeftLeg
			{
				OFFSET 2.448110 -6.726130 0.000000
				CHANNELS 3 Zrotation Yrotation Xrotation
				JOINT LeftFoot
				{
					OFFSET 2.562200 -7.039590 0.000000
					CHANNELS 3 Zrotation Yrotation Xrotation
					JOINT LeftToeBase
					{
						OFFSET 0.157640 -0.433110 2.322550
						CHANNELS 3 Zrotation Yrotation Xrotation
						End Site
						{
							OFFSET 0.000000 0.000000 0.000000
						}
					}
				}
			}
		}
	}
	JOINT RHipJoint
	{
		OFFSET 0.000000 0.000000 0.000000
		CHANNELS 3 Zrotation Yrotation Xrotation
		JOINT RightUpLeg
		{
			OFFSET -1.305520 -1.794630 0.839290
			CHANNELS 3 Zrotation Yrotation Xrotation
			JOINT RightLeg
			{
				OFFSET -2.542530 -6.985550 0.000000
				CHANNELS 3 Zrotation Yrotation Xrotation
				JOINT RightFoot
				{
					OFFSET -2.568260 -7.056230 0.000000
					CHANNELS 3 Zrotation Yrotation Xrotation
					JOINT RightToeBase
					{
						OFFSET -0.164730 -0.452590 2.363150
						CHANNELS 3 Zrotation Yrotation Xrotation
						End Site
						{
							OFFSET 0.000000 0.000000 0.000000
						}
					}
				}
			}
		}
	}
	JOINT LowerBack
	{
		OFFSET 0.000000 0.000000 0.000000
		CHANNELS 3 Zrotation Yrotation Xrotation
		JOINT Spine
		{
			OFFSET 0.028270 2.035590 -0.193380
			CHANNELS 3 Zrotation Yrotation Xrotation
			JOINT Spine1
			{
				OFFSET 0.056720 2.048850 -0.042750
				CHANNELS 3 Zrotation Yrotation Xrotation
				JOINT Neck
				{
					OFFSET 0.000000 0.000000 0.000000
					CHANNELS 3 Zrotation Yrotation Xrotation
					JOINT Neck1
					{
						OFFSET -0.054170 1.746240 0.172020
						CHANNELS 3 Zrotation Yrotation Xrotation
						JOINT Head
						{
							OFFSET 0.104070 1.761360 -0.123970
							CHANNELS 3 Zrotation Yrotation Xrotation
							End Site
							{
								OFFSET 0.000000 0.000000 0.000000
							}
						}
					}
				}
				JOINT LeftShoulder
				{
					OFFSET 0.000000 0.000000 0.000000
					CHANNELS 3 Zrotation Yrotation Xrotation
					JOINT LeftArm
					{
						OFFSET 3.362410 1.200890 -0.311210
						CHANNELS 3 Zrotation Yrotation Xrotation
						JOINT LeftForeArm
						{
							OFFSET 4.983000 -0.000000 -0.000000
							CHANNELS 3 Zrotation Yrotation Xrotation
							JOINT LeftHand
							{
								OFFSET 3.483560 -0.000000 -0.000000
								CHANNELS 3 Zrotation Yrotation Xrotation
								JOINT LeftFingerBase
								{
									OFFSET 0.000000 0.000000 0.000000
									CHANNELS 3 Zrotation Yrotation Xrotation
									JOINT LeftHandIndex1
									{
										OFFSET 0.715260 -0.000000 -0.000000
										CHANNELS 3 Zrotation Yrotation Xrotation
										End Site
										{
											OFFSET 0.000000 0.000000 0.000000
										}
									}
								}
								JOINT LThumb
								{
									OFFSET 0.000000 0.000000 0.000000
									CHANNELS 3 Zrotation Yrotation Xrotation
									End Site
									{
										OFFSET 0.000000 0.000000 0.000000
									}
								}
							}
						}
					}
				}
				JOINT RightShoulder
				{
					OFFSET 0.000000 0.000000 0.000000
					CHANNELS 3 Zrotation Yrotation Xrotation
					JOINT RightArm
					{
						OFFSET -3.136600 1.374050 -0.404650
						CHANNELS 3 Zrotation Yrotation Xrotation
						JOINT RightForeArm
						{
							OFFSET -5.241900 -0.000000 -0.000000
							CHANNELS 3 Zrotation Yrotation Xrotation
							JOINT RightHand
							{
								OFFSET -3.444170 -0.000000 -0.000000
								CHANNELS 3 Zrotation Yrotation Xrotation
								JOINT RightFingerBase
								{
									OFFSET 0.000000 0.000000 0.000000
									CHANNELS 3 Zrotation Yrotation Xrotation
									JOINT RightHandIndex1
									{
										OFFSET -0.622530 -0.000000 -0.000000
										CHANNELS 3 Zrotation Yrotation Xrotation
										End Site
										{
											OFFSET 0.000000 0.000000 0.000000
										}
									}
								}
								JOINT RThumb
								{
									OFFSET 0.000000 0.000000 0.000000
									CHANNELS 3 Zrotation Yrotation Xrotation
									End Site
									{
										OFFSET 0.000000 0.000000 0.000000
									}
								}
							}
						}
					}
				}
			}
		}
	}
}
MOTION
Frames: 4
Frame Time: 0.033333
1.298184 17.360813 -9.381294 3.553192 -7.481957 8.544677 -14.066748 -1.480779 -0.869760 -8.967186 -2.897614 -32.143196 3.546566 8.978175 29.541804 2.251514 0.689049 -11.215869 -1.193823 0.200526 -24.504392 13.968663 -5.156879 8.724723 -0.430061 -9.837808 -19.450740 5.583648 -7.688858 42.549332 -1.882416 4.037326 6.521296 1.655639 -0.088059 -62.038458 -11.666141 1.466962 -14.459746 -2.490892 -0.252839 -3.531334 -7.725894 -0.610074 4.389034 12.012501 -8.346485 -11.598418 -2.372253 -0.373943 -0.622934 0.032080 -0.019998 0.004257 -3.112496 18.569230 5.777165 -64.426928 3.338946 3.868937 -5.232105 -2.230805 0.707133 1.795322 1.081668 0.055242 0.025491 -0.080654 0.001615 -0.025183 -0.030101 0.007123 0.010266 0.091205 -0.093150 20.819128 -19.761688 3.939306 56.420857 20.914957 1.793999 -3.009067 52.615446 -0.836313 -4.079758 10.959037 -0.465012 -0.000340 -0.438109 -0.060668 0.044245 0.047675 -0.070414 0.003227 -0.028379 0.052422 
1.365031 17.269243 -8.804268 2.677673 -3.976632 7.489989 -15.014666 -0.440834 0.153826 -6.646915 -4.351527 -24.927033 1.493054 6.911873 21.599014 2.063848 1.590294 -6.722424 -1.317127 0.195198 -24.597995 12.426631 -4.034646 9.106964 1.908953 -10.106564 -26.227068 5.607170 -8.294069 55.637546 -0.397365 -3.462038 26.497012 1.561820 -0.108208 -60.760789 -9.505401 -3.136974 -13.419993 -2.530912 -0.167140 -3.013816 -8.379356 -0.520399 4.232589 13.340238 -9.440906 -12.791270 -2.206392 -0.336731 -0.854415 0.030804 -0.015358 -0.004081 -1.045694 18.182331 8.565676 -62.238713 -11.542121 -2.999550 -6.793225 -4.862895 1.551640 2.204657 0.653120 0.039216 0.001467 -0.012186 0.007953 -0.020380 -0.032999 0.001828 -0.004658 0.087121 -0.086565 23.277285 -23.324586 7.122238 57.622941 16.698758 -0.568659 -3.214493 43.787939 -0.339900 -3.574007 10.643113 -0.421630 -0.003413 -0.429445 -0.055556 0.039554 0.041375 -0.068760 0.004691 -0.021219 0.038965 
1.432166 17.220197 -8.230640 2.046022 -1.335595 6.256976 -15.044707 1.140229 0.661886 -6.461197 -5.456184 -18.105707 0.189314 4.996685 13.569298 1.829589 2.091730 -3.849865 -1.019882 0.123938 -25.499382 11.385566 -3.854379 9.664310 2.337155 -8.828204 -33.118531 8.542275 -8.069994 63.241235 -0.007527 -12.689928 56.635033 1.051854 -0.120858 -59.293851 -7.730122 -4.918850 -11.691292 -3.405198 0.095807 -2.601113 -8.416050 -0.879345 4.349440 14.210477 -10.368133 -12.937034 -2.099742 -0.296799 -0.771702 0.036869 -0.012074 -0.013665 -0.013188 16.780335 10.202872 -57.422837 -25.709997 -8.755500 -8.515701 -7.936024 2.291541 2.510850 -0.043154 0.007288 -0.069081 0.032064 0.007506 -0.016827 -0.031301 0.000238 -0.014115 0.081478 -0.081400 24.572958 -28.387863 8.669163 58.257311 13.508733 -3.715373 -3.312763 33.243882 -0.232796 -2.893905 9.963251 -0.363838 -0.036359 -0.383473 -0.050064 0.030259 0.036887 -0.060248 0.003325 -0.012054 0.025039 
1.508212 17.211342 -7.661555 0.962536 1.607472 5.086049 -14.601612 2.362518 0.529483 -5.618058 -6.166043 -10.248435 -2.189205 2.085140 6.638488 2.099595 1.553319 -4.827706 -0.855055 0.123062 -25.930607 10.549699 -3.450263 11.393647 3.002930 -7.488817 -39.211213 17.962764 -4.646710 65.094932 -0.392740 -16.742380 85.298061 0.622029 -0.109190 -58.296124 -5.447260 -8.629733 -10.599550 -3.728168 -0.130845 -2.352610 -8.734232 -0.537762 4.627285 15.212479 -11.390254 -13.667125 -1.925809 -0.259369 -0.945870 0.036213 -0.006591 -0.022071 1.887068 16.044187 12.220733 -50.168588 -38.485143 -17.891150 -10.100385 -12.005694 3.131026 2.994125 -0.552310 -0.023856 -0.098733 0.106810 0.007187 -0.017181 -0.028058 -0.004076 -0.025145 0.077202 -0.073787 25.522531 -31.981705 10.785265 58.774314 10.182028 -6.549792 -3.067816 23.003950 -0.042453 -1.946056 9.370534 -0.284033 -0.053353 -0.349155 -0.043710 0.020811 0.026805 -0.054282 0.006378 0.003111 0.008920 
